<?xml version="1.0" standalone="no"?>
<!DOCTYPE svg PUBLIC "-//W3C//DTD SVG 20010904//EN"
 "http://www.w3.org/TR/2001/REC-SVG-20010904/DTD/svg10.dtd">
<svg version="1.0" xmlns="http://www.w3.org/2000/svg"
 width="512.000000pt" height="512.000000pt" viewBox="0 0 512.000000 512.000000"
 preserveAspectRatio="xMidYMid meet">

<g transform="translate(0.000000,512.000000) scale(0.100000,-0.100000)"
fill="white" stroke="none">
<path d="M2324 4377 c-2 -7 -3 -111 -2 -232 l3 -220 255 0 255 0 3 210 c1 116
0 220 -3 233 l-5 22 -251 0 c-193 0 -251 -3 -255 -13z"/>
<path d="M1067 3804 c-10 -10 -8 -436 1 -452 7 -9 65 -12 258 -10 l249 3 0
230 0 230 -251 3 c-138 1 -253 -1 -257 -4z"/>
<path d="M1702 3798 c-17 -17 -17 -429 0 -446 17 -17 489 -17 506 0 17 17 17
429 0 446 -17 17 -489 17 -506 0z"/>
<path d="M2325 3797 c-3 -7 -4 -111 -3 -232 l3 -220 255 0 255 0 0 230 0 230
-253 3 c-199 2 -254 0 -257 -11z"/>
<path d="M3964 3633 c-53 -81 -103 -188 -130 -280 -23 -74 -27 -108 -28 -218
-1 -142 17 -225 72 -330 15 -27 28 -53 30 -57 5 -10 -103 -48 -203 -71 -89
-21 -105 -21 -1852 -27 l-1762 -5 -35 -34 c-52 -50 -59 -95 -46 -284 46 -686
318 -1201 744 -1407 160 -77 401 -141 646 -172 137 -17 641 -17 770 0 375 50
628 121 905 256 239 117 408 236 593 419 238 234 417 500 567 842 36 83 72
165 80 183 l15 32 80 0 c94 0 211 22 293 55 158 63 296 186 365 324 23 46 42
91 42 100 0 42 -164 119 -303 141 -76 13 -324 9 -357 -4 -13 -5 -18 6 -28 51
-39 182 -171 370 -339 483 -41 27 -78 50 -81 50 -4 0 -21 -21 -38 -47z"/>
<path d="M458 3229 c-16 -9 -18 -31 -18 -233 0 -195 2 -225 16 -230 31 -12
479 -7 492 6 9 9 12 74 12 230 0 205 -1 218 -19 228 -26 13 -460 13 -483 -1z"/>
<path d="M1078 3229 c-16 -9 -18 -31 -18 -227 0 -156 3 -221 12 -230 13 -13
461 -18 492 -6 14 5 16 35 16 230 0 211 -1 224 -19 234 -26 13 -460 13 -483
-1z"/>
<path d="M1706 3224 c-14 -13 -16 -48 -16 -228 0 -151 3 -215 12 -224 9 -9 79
-12 255 -12 229 0 243 1 253 19 6 12 10 102 10 225 0 173 -2 207 -16 220 -13
14 -50 16 -249 16 -199 0 -236 -2 -249 -16z"/>
<path d="M2338 3229 c-16 -9 -18 -31 -18 -233 0 -195 2 -225 16 -230 31 -12
479 -7 492 6 9 9 12 74 12 230 0 205 -1 218 -19 228 -26 13 -460 13 -483 -1z"/>
<path d="M2968 3229 c-16 -9 -18 -31 -18 -233 0 -195 2 -225 16 -230 31 -12
479 -7 492 6 9 9 12 74 12 230 0 205 -1 218 -19 228 -26 13 -460 13 -483 -1z"/>
</g>
</svg>
