<?xml version="1.0" standalone="no"?>
<!DOCTYPE svg PUBLIC "-//W3C//DTD SVG 20010904//EN"
 "http://www.w3.org/TR/2001/REC-SVG-20010904/DTD/svg10.dtd">
<svg version="1.0" xmlns="http://www.w3.org/2000/svg"
 width="512.000000pt" height="512.000000pt" viewBox="0 0 512.000000 512.000000"
 preserveAspectRatio="xMidYMid meet">

<g transform="translate(0.000000,512.000000) scale(0.100000,-0.100000)"
fill="white" stroke="none">
<path d="M29 5091 l-29 -29 0 -1052 0 -1052 29 -29 29 -29 334 0 333 0 0 -107
c0 -101 2 -113 32 -175 17 -37 52 -87 76 -112 191 -191 514 -132 631 114 29
60 31 73 31 173 l0 107 333 0 334 0 29 29 29 29 0 334 0 333 108 0 c99 0 112
2 172 31 269 127 308 495 70 669 -79 58 -149 77 -257 72 l-93 -4 0 334 0 335
-29 29 -29 29 -1052 0 -1052 0 -29 -29z m2021 -499 c0 -346 1 -359 20 -380 33
-35 62 -36 147 -8 100 33 154 33 221 0 128 -64 159 -231 63 -338 -72 -79 -147
-93 -282 -50 -87 27 -117 26 -149 -6 -19 -19 -20 -35 -20 -380 l0 -360 -360 0
c-345 0 -361 -1 -380 -20 -32 -32 -33 -62 -6 -149 43 -135 29 -210 -50 -282
-107 -96 -274 -65 -338 63 -33 67 -33 121 0 221 28 85 27 114 -8 147 -21 19
-34 20 -380 20 l-358 0 0 940 0 940 940 0 940 0 0 -358z"/>
<path d="M2954 4260 c-54 -22 -54 -22 -54 -457 0 -273 4 -410 11 -426 24 -54
58 -57 190 -17 92 28 147 23 212 -21 139 -92 123 -312 -28 -380 -55 -25 -126
-23 -218 6 -87 28 -117 26 -147 -12 -19 -25 -20 -42 -20 -379 l0 -354 -347 0
c-376 0 -387 -2 -411 -54 -12 -24 -11 -37 12 -111 30 -97 33 -164 7 -220 -20
-45 -69 -91 -118 -112 -88 -36 -212 4 -264 85 -42 66 -47 120 -19 211 31 104
35 129 20 156 -24 44 -43 46 -473 43 l-406 -3 -23 -23 -23 -23 0 -1060 0
-1061 28 -24 28 -24 2075 0 2076 0 29 29 29 29 0 2076 0 2075 -24 28 -24 28
-1049 2 c-578 1 -1058 -2 -1069 -7z m1996 -1100 l0 -940 -277 0 -278 0 0 107
c0 101 -2 113 -32 175 -85 180 -277 266 -465 208 -112 -35 -194 -107 -246
-217 -24 -52 -27 -69 -27 -166 l0 -107 -277 0 -278 0 0 280 0 280 43 -6 c23
-3 48 -8 55 -10 27 -8 146 17 197 43 66 32 146 112 179 179 50 99 51 233 3
337 -75 164 -265 258 -439 218 l-38 -9 0 277 c0 153 3 281 7 284 3 4 426 7
940 7 l933 0 0 -940z m-881 -610 c91 -26 161 -117 161 -209 0 -25 -12 -81 -26
-124 -28 -85 -27 -114 8 -147 21 -19 34 -20 380 -20 l358 0 0 -940 0 -940
-940 0 -940 0 0 278 0 277 113 0 c107 0 116 2 179 33 217 107 286 389 143 584
-80 110 -206 165 -351 155 l-84 -6 0 279 0 280 360 0 c345 0 361 1 380 20 32
32 33 62 6 149 -31 97 -32 151 -7 206 47 101 158 154 260 125z m-2491 -542
c-5 -24 -7 -74 -4 -111 11 -138 95 -259 224 -320 61 -29 75 -32 167 -32 87 0
107 3 157 27 100 46 175 131 213 238 16 46 22 165 10 213 l-7 27 281 0 281 0
0 -356 0 -356 29 -29 c36 -35 57 -36 151 -4 89 30 140 31 200 4 60 -27 79 -45
106 -104 42 -89 26 -183 -42 -252 -69 -68 -143 -79 -271 -38 -99 31 -108 31
-144 -4 l-29 -29 0 -356 0 -356 -940 0 -940 0 0 933 c0 514 3 937 7 940 3 4
131 7 284 7 l277 0 -10 -42z"/>
</g>
</svg>
