<?xml version="1.0" standalone="no"?>
<!DOCTYPE svg PUBLIC "-//W3C//DTD SVG 20010904//EN"
 "http://www.w3.org/TR/2001/REC-SVG-20010904/DTD/svg10.dtd">
<svg version="1.0" xmlns="http://www.w3.org/2000/svg"
 width="3840.000000pt" height="2160.000000pt" viewBox="0 0 3840.000000 2160.000000"
 preserveAspectRatio="xMidYMid meet">

<g transform="translate(0.000000,2160.000000) scale(0.100000,-0.100000)"
fill="white" stroke="none">
<path d="M19179 21238 c-9 -7 -74 -94 -145 -193 -408 -569 -1065 -1418 -1505
-1945 -674 -806 -1376 -1860 -1882 -2825 -788 -1503 -1224 -2987 -1329 -4525
-13 -202 -17 -790 -5 -1025 100 -2106 927 -4178 2402 -6020 484 -604 1018
-1161 1570 -1635 122 -105 302 -246 341 -268 15 -8 19 -37 30 -188 17 -239 23
-320 29 -374 2 -25 7 -74 10 -110 28 -344 95 -1021 145 -1488 17 -149 30 -277
30 -282 0 -6 117 -10 325 -10 179 0 325 2 325 5 0 2 11 102 25 222 32 287 98
948 130 1298 14 154 27 303 30 330 2 28 11 147 20 265 25 348 17 314 88 368
600 460 1266 1123 1828 1817 1504 1858 2345 3944 2446 6070 12 235 8 823 -6
1030 -122 1835 -727 3607 -1859 5455 -375 612 -916 1368 -1351 1890 -447 536
-1088 1364 -1518 1962 -75 103 -141 188 -147 188 -7 0 -19 -6 -27 -12z m34
-7265 c8 -13 16 -119 22 -288 3 -88 7 -189 10 -225 2 -36 7 -132 10 -215 3
-82 7 -184 10 -225 2 -41 7 -138 10 -215 3 -77 7 -178 10 -225 2 -47 7 -143
10 -215 3 -71 7 -179 10 -240 3 -60 7 -158 10 -217 3 -60 7 -157 10 -218 3
-60 7 -161 10 -222 3 -62 8 -162 10 -223 3 -60 8 -159 10 -220 3 -60 8 -157
10 -215 3 -58 14 -305 25 -550 22 -502 28 -644 35 -780 3 -52 7 -151 10 -220
3 -69 7 -168 10 -220 3 -52 7 -151 10 -220 3 -69 7 -168 10 -220 3 -52 7 -151
10 -220 3 -69 7 -168 10 -220 3 -52 7 -151 10 -220 7 -157 13 -302 20 -450 7
-146 14 -306 20 -440 11 -240 23 -502 30 -660 3 -58 14 -305 25 -550 11 -245
22 -497 25 -560 3 -63 8 -167 10 -230 3 -63 7 -155 10 -205 2 -49 7 -153 10
-230 3 -77 7 -171 10 -210 2 -38 7 -144 10 -235 3 -91 8 -183 10 -205 2 -22 7
-128 10 -235 4 -107 9 -207 11 -222 3 -21 -9 -42 -55 -101 -94 -116 -429 -433
-450 -425 -16 6 -277 246 -345 318 -36 38 -84 93 -107 122 l-42 53 7 200 c4
110 9 218 11 240 2 22 7 110 10 195 3 85 8 198 10 250 3 52 12 248 20 435 8
187 17 390 20 450 3 61 7 158 10 218 3 59 7 157 10 217 3 61 7 160 10 220 3
61 7 161 10 223 8 173 15 322 20 437 3 58 7 155 10 215 2 61 7 166 10 235 3
69 7 168 10 220 3 52 7 151 10 220 3 69 7 168 10 220 3 52 7 151 10 220 3 69
7 168 10 220 3 52 7 151 10 220 3 69 7 168 10 220 6 124 12 261 30 670 8 184
17 382 20 440 3 58 7 159 10 225 3 66 8 163 10 215 3 52 7 154 10 225 3 72 8
168 10 215 3 47 7 146 10 220 3 74 7 173 10 220 3 47 7 146 10 220 3 74 7 178
10 230 3 52 7 151 10 220 3 69 7 168 10 220 3 52 7 151 10 220 3 69 7 168 10
220 3 52 7 151 10 220 3 69 7 168 10 220 3 52 7 149 10 215 3 66 14 317 25
559 11 241 23 442 26 447 6 11 31 12 37 2z"/>
</g>
</svg>
